<?xml version="1.0" standalone="no"?>
<!DOCTYPE svg PUBLIC "-//W3C//DTD SVG 20010904//EN"
 "http://www.w3.org/TR/2001/REC-SVG-20010904/DTD/svg10.dtd">
<svg version="1.0" xmlns="http://www.w3.org/2000/svg"
 width="810.000000pt" height="2397.000000pt" viewBox="0 0 810.000000 2397.000000"
 preserveAspectRatio="xMidYMid meet">
<metadata>
Created by potrace 1.16, written by Peter Selinger 2001-2019
</metadata>
<g transform="translate(0.000000,2397.000000) scale(0.100000,-0.100000)"
fill="#7A8B5A" stroke="none">
<path d="M6367 20709 c-15 -11 -32 -38 -38 -59 -7 -22 -20 -47 -31 -56 -13
-13 -18 -31 -18 -70 0 -47 -4 -57 -30 -81 -18 -16 -36 -46 -45 -76 -8 -27 -30
-66 -50 -88 -19 -21 -37 -51 -41 -66 -4 -16 -19 -42 -35 -58 -16 -17 -33 -45
-39 -62 -7 -17 -23 -39 -36 -48 -14 -9 -33 -35 -43 -59 -10 -23 -33 -56 -50
-73 -17 -17 -31 -38 -31 -47 0 -8 -14 -24 -30 -36 -17 -12 -39 -39 -50 -60
-10 -20 -26 -40 -35 -43 -8 -4 -26 -30 -38 -60 -13 -29 -36 -60 -50 -70 -14
-9 -28 -30 -32 -47 -4 -17 -18 -38 -32 -47 -14 -10 -36 -40 -48 -68 -13 -27
-35 -61 -49 -74 -14 -14 -26 -33 -26 -44 0 -10 -18 -36 -40 -58 -26 -26 -41
-51 -45 -76 -8 -46 -18 -70 -45 -104 -14 -17 -25 -54 -34 -111 -8 -58 -19 -94
-34 -113 -22 -28 -24 -34 -42 -179 -8 -62 -19 -103 -36 -132 -51 -86 -54 -489
-5 -599 12 -27 29 -83 37 -125 9 -41 27 -95 41 -119 30 -52 39 -149 44 -476 4
-265 -6 -376 -38 -423 -18 -28 -23 -48 -23 -99 0 -67 -30 -146 -84 -220 -13
-18 -27 -50 -31 -70 -3 -21 -15 -47 -24 -58 -10 -11 -29 -51 -42 -88 -16 -47
-33 -75 -51 -89 -16 -10 -28 -26 -28 -34 0 -8 -19 -35 -42 -59 -55 -57 -103
-113 -125 -145 -21 -31 -83 -105 -121 -145 -16 -16 -35 -41 -42 -55 -7 -14
-24 -36 -37 -50 -72 -77 -126 -136 -193 -210 -41 -46 -89 -97 -105 -114 -17
-17 -40 -47 -52 -66 -12 -19 -35 -48 -52 -64 -17 -17 -31 -36 -31 -44 0 -7
-16 -28 -35 -45 -19 -17 -35 -36 -35 -42 0 -7 -17 -28 -37 -47 -21 -20 -54
-56 -74 -79 -65 -77 -128 -153 -169 -200 -22 -26 -44 -59 -50 -73 -5 -14 -21
-31 -35 -38 -13 -6 -27 -19 -30 -28 -3 -9 -21 -32 -40 -51 -18 -19 -42 -55
-53 -79 -11 -25 -31 -56 -46 -69 -14 -13 -30 -38 -36 -56 -6 -18 -22 -37 -35
-43 -14 -7 -25 -16 -25 -21 0 -12 -208 -221 -221 -221 -5 0 -9 -4 -9 -10 0 -5
-40 -54 -89 -107 -48 -54 -95 -112 -104 -130 -10 -17 -25 -38 -35 -45 -11 -7
-26 -29 -36 -48 -9 -20 -31 -44 -51 -54 -20 -11 -38 -31 -44 -48 -6 -16 -15
-27 -20 -24 -16 10 0 100 25 136 24 37 44 116 44 179 0 39 18 76 68 141 20 28
32 54 32 75 0 22 9 40 30 60 17 16 30 34 30 41 0 12 26 43 108 130 16 16 39
49 51 71 11 23 25 45 31 48 6 4 22 29 36 58 15 28 37 59 49 69 13 10 29 35 35
56 7 20 23 48 35 62 13 14 31 44 40 67 9 23 28 49 42 58 13 9 32 33 40 53 8
20 26 50 40 66 13 16 31 47 40 68 8 21 24 43 35 49 11 6 30 35 43 64 13 29 29
56 36 60 6 4 20 27 31 51 10 24 30 51 43 60 13 9 34 37 46 62 12 26 32 58 44
72 12 14 30 47 39 75 9 27 28 61 42 76 14 14 31 50 39 79 8 29 25 69 39 89 15
22 30 67 40 120 10 55 23 92 36 106 12 13 27 52 36 95 9 44 25 85 40 106 14
18 34 61 44 94 10 34 25 70 33 79 29 33 39 64 48 154 5 51 21 130 36 177 32
104 43 317 23 434 -9 54 -9 78 -1 94 6 11 15 60 20 109 5 48 17 115 25 148 18
68 20 132 6 202 -21 109 -33 261 -39 493 -6 235 -7 246 -29 277 -23 32 -31 64
-53 216 -8 54 -20 90 -37 115 -22 32 -27 52 -32 147 -6 107 -14 133 -52 186
-12 16 -24 61 -33 126 -8 55 -22 120 -31 144 -12 31 -19 93 -23 214 -8 183
-15 213 -63 248 -34 25 -135 35 -176 18 -25 -11 -62 -68 -62 -96 0 -5 -10 -19
-21 -31 -12 -13 -28 -51 -36 -86 -9 -41 -24 -73 -42 -93 -16 -16 -34 -48 -41
-70 -7 -22 -23 -57 -37 -79 -14 -21 -31 -59 -39 -85 -7 -26 -25 -58 -39 -71
-13 -12 -30 -39 -36 -59 -7 -20 -25 -52 -40 -71 -15 -19 -32 -55 -38 -79 -5
-24 -22 -57 -39 -75 -16 -17 -35 -48 -42 -68 -6 -21 -24 -47 -40 -58 -16 -11
-31 -34 -35 -51 -4 -16 -22 -45 -40 -64 -19 -19 -39 -52 -45 -77 -7 -23 -24
-54 -40 -68 -15 -14 -35 -47 -45 -73 -9 -26 -28 -55 -40 -63 -13 -9 -29 -31
-35 -50 -7 -19 -23 -42 -37 -51 -14 -10 -32 -31 -39 -48 -7 -18 -29 -51 -48
-74 -20 -24 -36 -53 -36 -65 0 -12 -15 -44 -34 -70 -18 -26 -36 -64 -40 -85
-3 -22 -19 -50 -40 -73 -19 -20 -37 -51 -41 -69 -4 -19 -22 -50 -41 -70 -28
-29 -36 -46 -40 -90 -5 -43 -12 -59 -35 -79 -23 -19 -32 -38 -38 -79 -6 -41
-16 -60 -39 -82 -19 -18 -34 -43 -38 -67 -12 -72 -24 -110 -40 -123 -26 -22
-37 -51 -44 -124 -6 -53 -15 -82 -38 -120 -27 -42 -33 -66 -42 -150 -12 -114
-16 -130 -41 -166 -37 -53 -56 -444 -39 -829 11 -250 19 -306 50 -348 11 -15
24 -60 31 -102 9 -57 19 -84 42 -114 17 -22 34 -59 38 -85 7 -34 18 -54 43
-76 26 -23 35 -41 40 -76 5 -32 16 -56 40 -81 22 -23 35 -49 40 -77 4 -29 17
-54 41 -78 21 -22 37 -50 40 -72 13 -79 17 -92 39 -124 15 -22 27 -62 35 -116
7 -44 19 -97 27 -117 18 -43 11 -131 -18 -218 -11 -33 -22 -103 -25 -160 -5
-84 -11 -110 -34 -156 -23 -44 -30 -77 -38 -164 -8 -86 -14 -113 -30 -130 -29
-30 -38 -62 -46 -151 -9 -104 -20 -148 -45 -170 -10 -9 -28 -45 -40 -80 -14
-43 -28 -66 -46 -75 -13 -8 -27 -25 -31 -39 -8 -36 -42 -101 -51 -101 -5 0
-19 -23 -32 -51 -13 -28 -32 -55 -42 -60 -9 -5 -27 -31 -38 -57 -12 -26 -34
-60 -49 -77 -16 -16 -36 -43 -45 -60 -9 -16 -28 -45 -41 -64 -14 -19 -30 -52
-36 -73 -5 -21 -17 -42 -25 -45 -8 -3 -26 -30 -40 -59 -14 -30 -34 -59 -44
-64 -11 -6 -26 -33 -34 -61 -9 -29 -26 -59 -40 -70 -13 -11 -32 -41 -41 -68
-8 -26 -27 -59 -40 -71 -14 -13 -30 -42 -36 -64 -6 -23 -24 -55 -39 -71 -16
-17 -36 -50 -44 -74 -9 -23 -27 -51 -40 -62 -14 -11 -28 -38 -36 -66 -7 -31
-23 -58 -44 -78 -24 -22 -35 -42 -40 -75 -5 -33 -16 -53 -41 -76 -25 -22 -36
-43 -41 -75 -5 -28 -17 -52 -35 -69 -15 -14 -31 -38 -34 -55 -4 -16 -20 -46
-35 -65 -36 -47 -50 -75 -50 -101 0 -12 -16 -39 -35 -60 -22 -25 -37 -53 -41
-80 -4 -24 -20 -56 -40 -81 -19 -22 -34 -50 -34 -63 0 -34 -14 -66 -44 -98
-14 -15 -28 -40 -32 -55 -3 -15 -7 -37 -10 -48 -2 -12 -20 -41 -39 -64 -19
-23 -35 -51 -35 -61 0 -29 -26 -87 -54 -119 -17 -21 -25 -47 -31 -97 -5 -50
-14 -80 -36 -112 -16 -25 -29 -52 -29 -61 0 -10 -7 -34 -15 -53 -8 -20 -15
-49 -15 -65 0 -26 -25 -62 -43 -62 -7 0 -2 181 9 299 4 43 17 97 30 126 14 32
27 93 35 156 7 63 21 124 34 154 25 54 40 118 50 205 4 33 16 69 31 91 24 36
35 83 53 229 5 41 21 108 35 147 19 51 31 115 41 215 8 79 24 172 36 208 15
47 23 109 29 225 11 203 34 1531 27 1542 -3 5 -11 97 -17 205 -8 152 -16 217
-36 290 -13 51 -31 127 -40 167 -8 41 -26 95 -41 120 -15 26 -32 77 -40 125
-8 46 -25 99 -39 124 -14 23 -32 68 -40 98 -8 30 -25 72 -39 92 -14 20 -33 61
-41 90 -9 29 -26 65 -39 80 -13 15 -31 54 -40 87 -10 32 -28 79 -41 103 -13
25 -24 56 -24 69 0 32 -26 93 -51 119 -11 12 -29 50 -39 84 -10 35 -31 75 -45
90 -18 18 -30 49 -41 101 -8 41 -26 90 -38 109 -13 19 -29 63 -35 97 -23 121
-120 275 -182 288 -15 4 -49 22 -74 42 -36 27 -63 38 -123 49 -138 24 -122 87
-122 -476 0 -472 1 -490 19 -500 30 -16 76 88 95 213 8 54 22 109 30 123 9 13
21 47 27 75 7 30 21 61 34 73 28 27 45 59 45 85 0 12 4 21 8 21 17 0 61 -56
67 -85 3 -16 8 -40 11 -52 2 -13 20 -38 39 -57 30 -31 35 -42 35 -83 0 -62 14
-111 40 -138 14 -15 24 -45 31 -90 5 -39 20 -85 35 -111 28 -47 28 -67 1 -139
-16 -42 -26 -197 -27 -397 0 -100 -3 -120 -18 -135 -32 -32 -42 -74 -56 -248
-11 -151 -16 -176 -39 -219 -19 -34 -27 -64 -27 -97 0 -27 -3 -49 -7 -49 -20
1 -73 93 -87 150 -9 36 -25 74 -35 85 -25 27 -36 51 -50 110 -7 28 -23 70 -37
94 -14 25 -38 105 -55 185 -33 151 -37 160 -62 150 -15 -5 -17 -33 -17 -273 0
-287 5 -323 50 -374 18 -21 34 -56 43 -96 9 -38 24 -73 40 -89 17 -19 29 -47
37 -92 8 -41 23 -81 42 -110 24 -34 34 -65 44 -131 7 -48 23 -106 35 -130 26
-53 40 -372 20 -469 -30 -139 -42 -225 -51 -345 -6 -71 -15 -156 -22 -189 -8
-45 -8 -99 2 -230 7 -94 11 -186 9 -205 -4 -34 -4 -34 -54 18 -48 49 -51 51
-106 51 -80 0 -89 -13 -89 -126 0 -90 0 -90 35 -107 18 -9 42 -29 51 -44 10
-15 37 -57 61 -93 43 -65 43 -65 43 -165 0 -100 0 -100 82 -190 45 -49 92 -98
105 -108 13 -11 32 -36 43 -57 23 -45 34 -50 106 -50 63 0 69 7 68 86 -2 54
-20 99 -65 154 -16 19 -29 40 -29 47 0 6 -12 25 -26 42 -55 65 -56 77 -60 714
-4 588 -4 588 25 655 47 110 56 181 56 447 -1 195 -4 251 -18 301 -19 70 -22
130 -7 170 6 15 15 75 21 133 8 79 15 113 31 134 33 47 39 84 47 267 6 165 8
178 33 220 34 57 48 143 48 297 0 128 4 141 38 118 21 -15 36 -52 47 -118 3
-20 18 -52 34 -70 19 -22 31 -52 39 -95 8 -45 19 -73 40 -96 24 -27 30 -46 36
-102 9 -91 22 -136 46 -167 14 -17 26 -58 36 -119 9 -62 25 -113 45 -152 31
-59 31 -59 38 -410 4 -193 4 -603 1 -911 -7 -560 -7 -560 -33 -648 -38 -124
-44 -157 -57 -295 -7 -81 -19 -144 -35 -185 -14 -38 -29 -113 -38 -193 -13
-108 -20 -139 -41 -170 -20 -31 -27 -61 -37 -149 -11 -97 -15 -114 -40 -142
-29 -34 -34 -50 -49 -172 -5 -45 -16 -84 -28 -100 -10 -14 -24 -43 -31 -63
-19 -59 -31 -45 -31 36 0 56 -4 79 -19 97 -10 13 -28 47 -40 75 -12 28 -35 60
-50 71 -15 12 -33 39 -39 61 -7 23 -23 49 -36 59 -12 10 -31 35 -41 56 -10 21
-26 42 -36 48 -11 5 -28 28 -39 50 -12 22 -32 45 -45 51 -14 6 -32 22 -40 35
-13 19 -24 23 -65 23 -50 0 -50 0 -50 -51 0 -40 5 -58 25 -81 14 -16 25 -36
25 -44 0 -14 43 -64 121 -143 22 -21 39 -50 43 -71 3 -19 19 -53 35 -75 16
-22 36 -65 44 -95 10 -32 25 -60 37 -68 11 -6 31 -30 45 -52 24 -38 28 -40 75
-40 61 0 59 16 26 -225 -14 -99 -33 -270 -42 -380 -17 -215 -26 -266 -54 -305
-9 -14 -23 -50 -30 -80 -7 -30 -29 -81 -50 -112 -24 -37 -40 -74 -44 -106 -4
-33 -14 -56 -31 -72 -14 -13 -27 -39 -31 -59 -11 -66 -27 -106 -55 -139 -24
-27 -29 -42 -29 -87 0 -49 -3 -57 -29 -76 -34 -25 -47 -53 -56 -122 -3 -26
-14 -55 -24 -65 -27 -26 -38 -50 -52 -120 -9 -50 -19 -71 -45 -96 -34 -33 -34
-33 -34 -305 0 -271 0 -271 30 -271 35 0 82 72 99 151 6 26 19 62 30 80 10 19
22 50 26 69 9 49 25 89 52 131 13 19 29 67 37 106 7 38 23 83 35 99 11 16 31
63 42 104 12 41 30 88 41 103 11 16 29 60 38 99 12 44 28 81 45 98 17 18 28
44 34 79 5 34 17 61 33 79 31 33 58 84 58 110 0 10 13 31 29 46 16 16 39 54
51 85 13 36 29 60 43 66 12 6 26 25 32 46 5 19 24 53 41 75 17 21 35 49 38 62
4 12 18 30 31 38 13 9 33 35 45 59 12 24 31 50 44 58 14 10 28 34 36 64 7 26
24 59 36 74 13 14 24 30 24 35 0 6 9 19 20 29 11 10 20 27 20 37 0 12 12 24
33 33 30 13 33 12 45 -12 13 -24 17 -25 88 -21 94 4 113 21 106 91 -4 46 -5
47 -38 47 -42 0 -43 12 -2 47 18 16 45 41 60 56 27 28 127 99 177 126 14 7 40
26 56 40 17 15 49 36 72 46 23 10 50 27 60 37 10 11 34 29 55 39 20 10 45 29
55 42 10 14 34 32 53 42 19 9 44 26 55 36 11 10 43 28 70 40 28 12 61 32 75
45 14 12 48 28 75 34 28 6 67 23 87 37 21 14 68 34 104 44 36 10 83 28 103 40
38 23 152 56 236 69 28 4 70 15 94 24 79 29 173 38 401 37 206 -1 226 -3 245
-21 11 -10 42 -28 68 -39 26 -12 59 -34 73 -51 15 -17 44 -35 67 -42 23 -6 58
-24 79 -40 21 -16 58 -32 89 -38 29 -6 70 -22 89 -35 20 -14 63 -32 96 -41 32
-8 75 -26 94 -39 51 -35 84 -45 151 -45 46 0 63 -4 79 -20 32 -32 61 -39 214
-52 156 -12 292 -3 359 25 36 15 37 18 37 65 0 28 -6 54 -12 60 -23 18 -134
24 -245 13 -228 -23 -283 -22 -292 3 -14 35 -33 45 -113 60 -55 11 -83 22
-101 39 -22 23 -81 47 -114 47 -7 0 -30 15 -50 33 -21 19 -60 40 -86 47 -26 7
-64 26 -84 42 -20 15 -48 31 -62 34 -65 14 -140 48 -129 59 3 3 49 11 102 16
62 6 116 18 149 33 60 27 85 32 228 45 83 8 119 17 170 41 44 21 79 30 114 30
46 0 83 13 155 55 14 8 57 20 97 26 55 9 80 18 104 40 18 16 42 29 54 29 38 0
89 22 120 51 24 22 45 30 109 38 44 6 85 16 92 22 8 6 35 8 71 4 76 -9 281 10
327 29 31 13 36 19 36 49 0 31 -4 36 -43 51 -23 9 -59 16 -80 16 -41 0 -46 9
-19 32 30 27 57 30 76 9 21 -23 79 -19 110 8 12 11 46 18 110 21 80 5 102 10
169 43 42 21 98 41 123 46 26 5 57 19 72 34 15 14 43 33 64 41 20 9 45 27 56
41 11 13 41 34 68 45 26 12 54 30 62 41 7 10 30 28 50 38 20 11 47 33 59 49
13 17 36 33 53 37 28 6 51 22 160 113 19 16 49 36 66 45 37 19 44 34 44 92 0
51 -7 55 -90 55 -56 0 -60 -2 -90 -40 -17 -22 -39 -40 -47 -40 -8 0 -29 -15
-47 -33 -17 -19 -50 -39 -74 -46 -24 -7 -49 -22 -58 -36 -8 -13 -29 -27 -45
-30 -17 -4 -47 -24 -69 -46 -21 -21 -48 -39 -59 -39 -11 0 -41 -18 -66 -40
-25 -22 -55 -40 -66 -40 -11 0 -35 -14 -52 -32 -25 -25 -46 -35 -102 -45 -38
-7 -81 -21 -95 -32 -68 -49 -112 -48 -102 4 7 38 225 255 256 255 9 0 34 16
56 36 24 21 57 40 82 46 24 5 57 22 73 37 18 17 51 34 84 41 29 7 67 25 85 40
17 15 48 30 70 34 21 4 48 18 60 30 11 13 41 33 66 46 24 12 57 36 71 51 16
17 37 29 52 29 13 0 46 17 73 39 27 21 60 42 74 46 14 4 34 15 45 25 11 10 45
29 75 43 31 13 63 35 72 49 9 14 34 30 59 37 24 7 60 28 81 46 22 19 55 35 76
39 22 3 48 16 62 31 23 25 60 34 60 15 0 -5 -4 -10 -10 -10 -14 0 -39 -52 -46
-99 -4 -26 -15 -49 -30 -60 -14 -11 -31 -36 -40 -58 -9 -21 -29 -50 -45 -65
-16 -15 -29 -35 -29 -46 0 -36 -22 -81 -42 -88 -35 -11 -48 -63 -48 -196 1
-148 19 -254 48 -277 11 -9 29 -36 41 -61 31 -66 57 -102 143 -198 108 -121
107 -143 -8 -228 -122 -89 -257 -106 -335 -40 -16 13 -48 27 -71 30 -24 4 -60
9 -80 12 -20 3 -57 19 -82 35 -41 27 -57 31 -194 44 -109 11 -165 21 -203 37
-51 22 -66 23 -244 21 -130 -1 -211 -7 -255 -17 -36 -9 -79 -16 -97 -16 -29 0
-32 -3 -31 -30 1 -17 4 -33 8 -35 11 -7 172 -23 350 -36 143 -10 170 -15 200
-34 53 -34 93 -44 233 -54 106 -8 132 -13 158 -32 17 -12 64 -30 104 -39 127
-29 223 -132 106 -114 -44 7 -71 -11 -71 -47 0 -29 -2 -31 -27 -23 -16 5 -71
9 -124 9 -88 0 -99 -2 -138 -28 -31 -21 -61 -30 -115 -36 -76 -9 -113 -23
-133 -51 -8 -11 -33 -20 -70 -25 -66 -8 -119 -27 -148 -55 -11 -10 -42 -22
-70 -25 -59 -9 -80 -18 -117 -52 -24 -23 -39 -26 -148 -34 -88 -7 -139 -16
-184 -33 -81 -32 -108 -36 -258 -37 -118 -1 -129 1 -170 25 -30 18 -70 28
-137 37 -64 8 -100 18 -112 30 -28 28 -50 36 -111 44 -46 6 -58 11 -58 25 0
21 -26 45 -60 55 -14 4 -42 26 -62 49 -36 39 -40 40 -105 44 -92 4 -117 -10
-121 -67 -4 -53 15 -77 69 -86 23 -4 57 -21 81 -42 38 -32 46 -34 102 -32 59
3 61 2 64 -23 5 -41 34 -54 133 -57 10 -1 19 -13 22 -30 6 -31 45 -51 97 -51
24 0 40 -9 116 -65 84 -62 562 -49 661 17 29 20 60 28 136 37 73 8 111 18 151
40 30 16 79 32 109 35 40 5 67 16 93 37 20 16 55 34 78 40 74 19 81 21 109 45
27 23 43 27 142 39 33 4 67 18 100 40 29 19 74 38 107 45 62 12 93 33 84 57
-12 29 4 64 24 53 36 -19 148 -12 203 14 29 13 79 27 112 31 33 4 81 18 108
31 26 14 71 29 99 34 120 23 288 218 288 335 0 53 -38 147 -71 176 -21 18 -34
43 -43 80 -15 65 -67 139 -116 165 -19 10 -49 32 -66 49 -17 16 -39 36 -48 43
-13 10 -16 33 -16 122 0 106 1 110 29 142 15 18 37 51 49 73 11 22 30 49 42
60 12 11 28 35 36 54 8 18 29 51 48 71 19 21 37 52 41 69 4 18 20 41 36 54 17
12 39 42 50 67 11 24 28 54 38 65 10 11 28 39 40 63 12 24 29 46 37 49 8 3 22
20 30 37 9 17 29 45 44 61 16 17 35 52 44 78 9 27 23 61 31 77 18 35 20 131 3
148 -43 43 -177 -14 -222 -93 -19 -34 -26 -40 -51 -37 -17 1 -57 5 -90 8 -88
8 -135 -10 -160 -63 -16 -33 -26 -42 -45 -43 -30 0 -50 -17 -50 -41 0 -9 -13
-22 -29 -29 -16 -6 -37 -20 -46 -30 -10 -11 -31 -22 -49 -25 -17 -4 -58 -24
-92 -46 -33 -21 -66 -39 -73 -39 -6 0 -21 -15 -32 -34 -15 -26 -30 -36 -66
-45 -27 -7 -58 -25 -77 -43 -20 -20 -46 -34 -75 -40 -25 -4 -58 -20 -79 -39
-19 -17 -48 -35 -63 -41 -15 -5 -35 -20 -44 -34 -8 -13 -32 -31 -52 -39 -19
-8 -53 -30 -73 -49 -21 -19 -51 -37 -68 -40 -16 -4 -40 -18 -52 -31 -13 -13
-54 -36 -92 -51 -37 -14 -72 -34 -77 -43 -5 -9 -34 -25 -63 -34 -30 -9 -65
-29 -79 -43 -13 -14 -39 -32 -58 -40 -31 -13 -55 -33 -144 -120 -18 -17 -75
-68 -127 -112 -138 -117 -166 -142 -215 -189 -24 -24 -51 -43 -59 -43 -8 0
-35 -18 -60 -39 -25 -22 -61 -44 -80 -51 -19 -6 -41 -21 -49 -34 -10 -14 -33
-26 -68 -34 -31 -7 -65 -24 -80 -38 -16 -15 -50 -31 -89 -40 -41 -9 -75 -25
-97 -44 -22 -20 -45 -30 -66 -30 -43 -1 -97 -21 -138 -52 -26 -20 -55 -29
-119 -37 -57 -7 -93 -18 -110 -31 -37 -30 -56 -37 -153 -54 -49 -9 -110 -28
-137 -42 -38 -20 -73 -28 -152 -35 -136 -11 -174 -18 -230 -40 -89 -35 -598
-54 -598 -23 0 7 18 34 40 60 22 27 45 67 51 88 6 22 23 62 37 90 21 40 27 67
30 140 3 79 9 100 37 157 22 44 36 89 41 130 5 47 13 71 30 89 12 14 33 48 45
75 22 49 69 113 119 161 61 59 78 72 120 98 54 32 117 81 188 147 43 40 52 54
52 83 0 31 4 36 35 46 20 7 57 28 82 47 25 19 67 42 92 51 68 22 131 72 272
212 161 159 190 185 228 204 17 9 31 21 31 26 0 5 27 23 60 40 32 16 64 38 69
48 5 10 28 27 50 37 22 10 47 28 55 40 8 13 38 31 65 41 28 10 64 30 81 45 16
15 56 35 87 44 32 9 73 28 91 42 27 20 50 26 135 34 144 13 174 18 246 45 101
38 492 37 550 -2 26 -17 67 -30 126 -39 62 -10 101 -23 134 -44 25 -16 64 -37
86 -46 22 -9 50 -28 62 -43 20 -25 27 -27 103 -28 81 -2 82 -2 123 -42 33 -31
52 -41 92 -47 30 -4 61 -17 79 -32 26 -22 37 -24 78 -20 72 9 88 21 88 66 0
35 -6 44 -61 92 -34 30 -81 73 -105 97 -23 23 -50 43 -61 44 -10 0 -37 2 -61
4 -24 2 -62 14 -85 28 -24 13 -68 33 -100 44 -31 11 -69 29 -84 40 -38 27 -64
34 -348 89 -59 11 -152 15 -360 16 -280 1 -280 1 -370 -27 -49 -15 -132 -32
-184 -37 -112 -10 -126 -14 -167 -45 -17 -13 -44 -26 -60 -28 -16 -3 -45 -8
-65 -11 -20 -3 -53 -19 -73 -34 -20 -16 -54 -32 -75 -36 -23 -4 -49 -17 -62
-32 -13 -14 -44 -34 -69 -45 -25 -11 -56 -30 -70 -42 -14 -13 -41 -29 -60 -36
-19 -7 -49 -28 -66 -47 -18 -18 -38 -33 -46 -33 -8 0 -23 -10 -34 -21 -10 -12
-41 -36 -69 -54 -27 -18 -98 -79 -157 -136 -139 -135 -189 -176 -224 -185 -16
-3 -51 -19 -79 -34 -27 -15 -68 -30 -90 -33 -100 -15 -192 -40 -211 -58 -12
-11 -48 -27 -80 -35 -33 -9 -68 -24 -79 -34 -11 -10 -35 -25 -52 -34 -18 -9
-48 -31 -67 -49 -19 -17 -48 -42 -65 -55 -29 -22 -31 -28 -31 -86 0 -72 17
-96 66 -96 54 0 63 -17 28 -48 -41 -35 -59 -66 -73 -124 -6 -26 -22 -63 -35
-83 -24 -36 -30 -58 -42 -173 -3 -34 -12 -68 -18 -75 -24 -24 -36 -57 -52
-139 -11 -59 -25 -97 -48 -133 -18 -28 -37 -62 -41 -75 -20 -65 -329 -370
-374 -370 -37 0 -123 -29 -158 -52 -21 -14 -60 -29 -86 -33 -35 -5 -59 -16
-87 -41 -26 -24 -53 -37 -90 -44 -58 -11 -70 -16 -88 -41 -7 -11 -38 -23 -73
-30 -43 -9 -67 -20 -87 -40 -15 -16 -48 -36 -73 -44 -27 -9 -59 -30 -77 -50
-16 -19 -37 -35 -45 -35 -8 0 -34 -16 -57 -35 -23 -19 -48 -35 -56 -35 -8 0
-33 -17 -57 -38 -23 -21 -54 -43 -69 -49 -15 -7 -34 -23 -43 -37 -10 -15 -37
-32 -66 -41 -27 -9 -55 -25 -61 -34 -7 -10 -31 -29 -54 -43 -22 -14 -48 -38
-57 -52 -10 -14 -26 -26 -37 -26 -11 0 -34 -15 -50 -32 -22 -25 -29 -29 -30
-16 0 10 12 25 26 35 28 18 42 46 55 111 5 24 19 56 32 72 14 16 29 54 36 89
9 46 19 68 41 87 18 17 33 44 40 76 7 28 25 64 40 82 15 17 35 53 44 81 10 27
26 58 38 69 11 10 28 37 38 60 10 22 30 57 44 76 15 19 31 53 37 75 6 22 24
54 39 70 17 17 35 52 42 82 9 34 23 59 40 73 19 14 29 34 33 64 4 25 16 53 26
63 10 10 27 26 38 36 10 10 22 33 25 51 4 18 16 42 27 52 12 11 32 43 45 73
13 30 35 64 48 76 13 12 26 39 30 61 5 24 20 52 41 74 21 21 38 52 43 78 6 26
20 50 36 63 14 11 34 39 44 62 11 23 29 51 41 61 11 11 26 36 31 57 6 21 26
52 45 70 19 18 40 46 46 63 7 17 23 44 37 60 13 16 30 47 39 68 8 21 28 48 44
59 16 11 29 26 29 34 0 7 16 35 36 60 20 26 44 67 54 91 10 23 27 47 37 53 11
5 31 34 45 63 15 29 36 62 47 72 12 11 21 29 21 42 0 14 15 34 40 54 23 18 47
46 54 64 13 29 191 236 271 316 19 19 35 38 35 43 0 4 19 27 43 51 23 24 74
78 112 121 83 93 266 276 325 325 23 19 59 52 80 73 24 23 49 37 64 37 24 0
89 47 161 118 17 16 46 37 65 47 19 10 50 31 68 46 18 16 39 29 47 29 8 0 33
18 55 39 22 21 52 42 67 46 15 3 41 19 59 35 18 15 50 33 71 40 21 7 50 24 65
38 19 17 49 29 100 39 39 7 81 22 93 32 11 10 47 28 80 40 33 12 74 35 90 51
17 16 47 32 68 35 21 4 50 18 65 30 52 43 66 45 324 55 230 8 260 11 330 34
103 34 320 44 714 33 364 -10 561 6 659 53 33 15 91 33 128 39 46 6 84 20 115
40 26 16 72 34 103 40 31 7 71 23 90 37 19 13 56 31 83 39 28 8 62 26 76 40
14 13 52 34 84 45 33 11 65 29 72 39 8 11 42 29 76 40 34 12 71 30 82 40 12
11 54 28 94 39 43 12 85 30 100 44 15 14 35 28 45 31 14 5 17 20 17 101 0 108
-8 118 -68 86 -20 -11 -44 -20 -53 -20 -9 0 -33 -13 -54 -30 -21 -16 -41 -30
-44 -30 -74 -3 -136 -22 -172 -54 -21 -20 -48 -36 -58 -36 -11 0 -40 -17 -65
-39 -31 -27 -57 -40 -89 -45 -27 -4 -60 -19 -81 -35 -23 -18 -53 -31 -85 -35
-35 -5 -61 -16 -90 -40 -29 -25 -53 -35 -93 -39 -36 -5 -67 -17 -97 -38 -34
-24 -66 -35 -131 -46 -47 -8 -103 -25 -125 -38 -65 -37 -90 -39 -710 -40 -324
0 -623 -5 -662 -9 -96 -11 -95 18 1 58 21 9 56 32 77 51 22 19 47 35 57 35 9
0 34 14 54 30 20 17 54 38 74 46 21 9 50 29 65 45 15 16 36 29 46 29 28 0 233
169 351 289 31 31 38 34 123 41 83 6 93 10 123 39 35 34 57 39 243 61 51 5
120 19 155 30 35 11 113 25 173 30 61 6 119 13 130 17 31 9 152 84 171 105 10
10 56 30 103 44 47 15 106 35 130 46 24 11 73 24 108 29 59 8 100 22 113 38
17 21 44 31 104 41 44 7 80 19 100 35 18 14 65 32 104 41 72 16 72 16 72 135
0 119 0 119 -34 119 -22 0 -46 -10 -70 -29 -22 -18 -54 -31 -83 -36 -61 -9
-110 -29 -131 -54 -11 -13 -43 -26 -91 -35 -41 -9 -84 -24 -95 -35 -33 -29
-63 -42 -128 -52 -34 -6 -74 -17 -89 -26 -28 -16 -30 -16 -76 17 -26 18 -58
45 -70 59 -20 24 -28 26 -120 29 -164 6 -295 -10 -343 -42 -22 -15 -63 -31
-91 -36 -36 -7 -59 -19 -79 -40 -15 -16 -33 -30 -38 -30 -13 0 -84 -59 -180
-151 -41 -40 -93 -79 -120 -90 -26 -11 -57 -29 -68 -40 -12 -11 -45 -26 -74
-34 -29 -8 -65 -25 -79 -38 -14 -14 -45 -34 -68 -46 -24 -12 -43 -25 -43 -30
0 -5 -17 -20 -37 -32 -56 -34 -230 -184 -271 -233 -7 -9 -26 -16 -41 -16 -19
0 -45 -13 -72 -36 -23 -19 -58 -42 -77 -49 -18 -8 -42 -25 -52 -37 -10 -13
-35 -29 -56 -37 -22 -7 -53 -28 -71 -47 -18 -19 -41 -34 -51 -34 -26 0 -135
-82 -174 -131 -45 -57 -117 -109 -148 -109 -16 0 -46 -15 -71 -35 -27 -21 -63
-39 -96 -45 -30 -7 -61 -21 -76 -36 -14 -13 -47 -31 -75 -39 -28 -9 -69 -31
-92 -50 -30 -25 -52 -35 -77 -35 -41 0 -69 -14 -105 -52 -18 -19 -36 -28 -57
-28 -21 0 -44 -11 -68 -32 -21 -18 -55 -42 -75 -52 -21 -10 -40 -27 -43 -37
-8 -23 -41 -43 -49 -30 -6 8 95 130 188 231 18 19 42 49 52 65 10 17 33 47 51
68 18 20 33 44 33 52 0 8 14 21 30 30 17 9 30 20 30 25 0 5 37 51 83 103 45
51 102 120 127 152 25 32 64 79 87 104 23 26 58 64 78 86 19 22 46 51 59 65
14 14 30 31 38 39 7 8 32 33 56 56 23 23 42 47 42 53 0 6 14 20 31 32 16 12
41 39 55 59 50 73 126 168 180 221 76 77 93 90 134 110 56 26 138 82 165 112
11 13 32 28 47 35 27 12 108 72 179 134 20 17 50 39 67 49 17 10 34 25 39 33
4 8 24 22 44 30 20 8 54 31 75 49 22 19 54 40 72 46 19 6 47 23 63 36 16 13
53 32 82 40 30 9 65 25 80 36 14 11 33 20 42 20 23 0 54 18 97 56 20 18 52 36
71 39 19 4 47 20 63 36 15 16 54 37 90 49 39 13 68 30 78 44 10 16 32 28 65
36 28 6 67 25 87 41 20 16 38 29 39 29 35 0 133 29 170 50 28 16 84 36 124 44
41 9 84 24 95 34 26 23 40 28 128 47 43 9 80 24 99 39 18 15 47 27 77 31 132
16 177 26 230 51 49 24 73 28 170 32 112 5 112 5 112 93 0 89 0 89 -57 89
-151 -1 -299 -20 -390 -50 -51 -16 -109 -30 -130 -30 -57 -1 -121 -18 -152
-41 -16 -12 -66 -30 -112 -40 -49 -12 -93 -28 -106 -41 -14 -13 -53 -27 -108
-38 -52 -11 -95 -25 -108 -38 -35 -31 -62 -42 -107 -42 -36 0 -48 -6 -74 -35
-20 -22 -42 -35 -57 -35 -45 0 -98 -21 -118 -46 -17 -22 -26 -25 -73 -22 -49
3 -51 4 -34 18 10 8 28 25 40 38 98 104 136 142 145 142 5 0 22 15 36 34 14
19 39 39 54 46 16 6 33 22 39 36 7 13 16 24 22 24 15 0 220 206 220 220 0 6
15 17 34 25 19 8 37 23 41 34 3 10 20 25 37 32 17 7 51 28 74 45 24 18 60 42
81 53 21 10 43 28 50 39 7 11 40 29 76 41 36 12 73 31 83 42 9 11 43 27 73 35
31 9 72 26 91 38 19 13 64 33 100 45 36 12 82 33 102 46 20 14 68 31 107 39
115 24 120 31 121 155 0 104 0 104 -42 98 -50 -6 -83 -19 -118 -46 -15 -12
-53 -24 -95 -29 -51 -7 -85 -19 -120 -41 -64 -41 -85 -26 -32 23 20 18 37 38
37 43 0 5 74 86 165 178 91 93 165 172 165 176 0 4 9 11 20 14 19 6 20 15 20
155 0 122 -3 149 -15 154 -18 7 -45 -3 -45 -16 0 -11 -5 -16 -231 -248 -83
-85 -163 -171 -177 -190 -15 -19 -43 -54 -64 -77 -21 -24 -38 -47 -38 -53 0
-5 -7 -10 -15 -10 -21 0 -19 12 10 53 25 38 39 81 49 157 4 25 20 64 35 88 21
29 31 61 36 105 8 66 17 90 45 122 16 18 26 45 44 126 3 14 19 43 36 64 16 21
30 45 30 54 0 37 23 95 46 116 13 12 33 48 44 79 11 32 28 65 39 74 10 9 27
41 36 70 9 29 25 57 35 62 11 6 27 33 37 61 10 29 28 58 41 66 21 15 22 20 22
175 0 159 0 159 -27 156 -19 -2 -32 -12 -42 -33 -8 -16 -29 -46 -46 -66 -18
-20 -36 -51 -40 -68 -4 -18 -18 -39 -32 -48 -14 -9 -34 -37 -44 -61 -11 -25
-30 -58 -44 -74 -13 -16 -29 -46 -35 -66 -5 -21 -23 -51 -39 -66 -19 -18 -34
-47 -41 -78 -9 -34 -21 -55 -41 -70 -21 -16 -31 -35 -40 -77 -7 -38 -20 -66
-40 -87 -20 -21 -32 -47 -38 -80 -10 -57 -23 -89 -51 -124 -12 -15 -23 -52
-29 -94 -7 -47 -18 -81 -37 -107 -15 -22 -35 -72 -44 -113 -10 -41 -28 -88
-41 -105 -15 -20 -28 -63 -40 -129 -12 -67 -26 -111 -42 -136 -18 -25 -27 -56
-32 -106 -5 -45 -14 -78 -26 -94 -10 -13 -19 -28 -19 -34 0 -5 -9 -17 -20 -27
-10 -9 -24 -33 -30 -51 -8 -22 -20 -36 -35 -40 -14 -3 -27 -15 -30 -25 -4 -10
-11 -19 -16 -19 -5 0 -14 -11 -19 -25 -5 -14 -16 -25 -24 -25 -9 0 -21 -10
-27 -22 -7 -13 -44 -56 -83 -97 -39 -41 -91 -96 -116 -122 -25 -26 -53 -56
-62 -66 -32 -34 -193 -184 -228 -214 -19 -16 -71 -62 -116 -102 -44 -39 -114
-101 -155 -137 -90 -79 -250 -253 -273 -297 -9 -18 -29 -39 -45 -48 -16 -8
-33 -24 -36 -35 -4 -12 -24 -32 -46 -46 -21 -13 -39 -31 -39 -39 0 -9 -20 -24
-44 -35 -24 -10 -48 -25 -53 -33 -11 -19 -71 -52 -79 -44 -4 3 7 22 24 41 16
19 33 49 37 68 4 18 20 47 36 63 15 17 35 48 45 70 9 22 27 49 39 61 13 12 27
39 31 60 8 48 31 93 49 100 8 3 24 35 35 70 14 41 31 71 47 82 53 37 93 75 93
88 0 8 20 36 45 62 74 77 174 195 200 237 18 29 46 62 111 129 18 18 39 47 48
64 9 18 27 39 41 48 13 8 29 31 35 50 6 19 27 52 45 74 19 22 37 50 41 63 4
12 19 37 35 54 15 18 33 52 39 75 7 24 22 54 35 68 29 31 45 71 45 114 0 19
11 49 25 69 33 50 44 93 55 232 5 66 19 173 30 238 27 152 26 650 -2 777 -9
41 -21 117 -26 168 -8 68 -18 105 -37 140 -15 26 -31 72 -37 102 -11 59 -33
110 -48 110 -5 0 -18 26 -30 58 -12 31 -35 72 -52 89 -35 36 -36 49 -23 173 8
84 -4 124 -47 154 -36 25 -178 22 -211 -5z m79 -338 c-11 -18 15 -78 39 -89
20 -9 26 -21 31 -64 6 -43 14 -59 41 -86 30 -28 36 -41 44 -105 6 -44 21 -94
39 -129 23 -44 31 -79 40 -158 5 -55 20 -160 31 -232 22 -129 22 -133 5 -322
-9 -105 -21 -272 -26 -370 -10 -175 -11 -180 -41 -224 -19 -28 -35 -69 -41
-105 -8 -48 -18 -67 -43 -91 -18 -17 -38 -48 -45 -68 -6 -21 -27 -56 -46 -79
-19 -22 -34 -48 -34 -56 0 -8 -16 -29 -35 -45 -19 -17 -40 -47 -46 -67 -7 -20
-27 -53 -45 -74 -19 -20 -34 -43 -34 -50 0 -8 -18 -34 -40 -58 -22 -24 -56
-62 -75 -84 -20 -22 -52 -58 -73 -80 -20 -22 -52 -58 -69 -79 -46 -56 -48 -41
-7 39 29 56 38 87 44 155 5 47 15 104 24 128 9 23 23 60 31 81 8 22 19 90 25
152 8 86 16 121 34 153 30 51 33 69 46 226 7 96 16 140 36 190 17 42 29 97 35
160 12 137 18 166 45 224 24 52 44 227 44 380 0 43 7 74 27 115 23 50 27 70
30 186 5 158 -3 180 -62 180 -54 0 -76 -39 -85 -150 -6 -70 -11 -88 -33 -114
-36 -43 -45 -84 -53 -241 -4 -74 -12 -151 -19 -170 -7 -19 -20 -54 -29 -78 -9
-24 -23 -100 -30 -170 -11 -92 -22 -142 -40 -182 -19 -41 -29 -91 -41 -195 -9
-78 -24 -162 -35 -190 -23 -58 -35 -116 -50 -235 -7 -49 -22 -107 -36 -138
-17 -37 -30 -91 -40 -175 -8 -67 -21 -129 -28 -137 -29 -33 -40 -69 -46 -153
-6 -82 -9 -90 -40 -122 -26 -27 -36 -48 -46 -106 -8 -39 -30 -106 -49 -148
-19 -42 -37 -96 -41 -121 -4 -25 -16 -53 -29 -64 -25 -24 -49 -68 -59 -108
-16 -69 -23 -9 -30 245 -9 372 -20 479 -52 542 -18 36 -28 75 -34 138 -8 87
-13 98 -62 160 -35 44 -29 176 11 261 23 49 32 85 41 181 9 90 19 136 40 185
15 36 35 101 44 145 12 55 24 87 41 105 13 14 30 49 37 78 8 37 21 61 40 77
16 13 37 44 47 68 11 24 26 47 34 50 8 3 23 27 32 54 10 26 33 62 52 80 18 18
33 39 33 47 0 8 18 33 40 55 22 22 40 44 40 50 0 10 65 90 128 156 16 17 34
42 40 57 6 15 22 34 36 43 13 9 31 33 39 53 8 20 27 48 41 61 14 14 31 42 36
62 6 23 22 46 40 59 15 11 34 36 40 55 6 19 27 53 46 76 19 23 37 53 40 68 3
14 12 44 20 66 8 23 14 52 14 66 0 14 3 29 7 33 9 8 26 -21 19 -33z m-2432
-1045 c20 -31 19 -39 -19 -146 -16 -46 -37 -85 -54 -101 -27 -24 -28 -31 -35
-143 -7 -106 -10 -122 -37 -165 -25 -39 -32 -65 -39 -137 -9 -99 -15 -120 -40
-149 -24 -27 -37 -75 -50 -174 -6 -54 -19 -102 -34 -131 -28 -54 -34 -81 -45
-210 -6 -77 -14 -108 -39 -160 -27 -54 -33 -82 -40 -170 -6 -69 -15 -118 -27
-140 -9 -19 -24 -47 -31 -61 -8 -15 -19 -76 -24 -135 -12 -126 -14 -135 -45
-180 -15 -22 -26 -57 -30 -92 -13 -127 -24 -173 -48 -202 -26 -30 -47 -120
-47 -200 0 -30 -8 -55 -25 -80 -27 -39 -45 -115 -45 -191 0 -68 -16 -69 -25
-1 -4 31 -13 84 -20 117 -8 33 -19 146 -25 250 -14 240 -27 350 -45 386 -13
23 -15 108 -15 512 0 484 0 484 26 508 15 13 37 47 49 74 13 28 35 61 49 74
14 14 26 29 26 35 0 6 17 32 39 58 24 30 41 62 45 87 4 27 16 50 36 67 16 15
37 49 45 75 9 27 25 55 35 62 11 7 28 34 39 59 10 25 28 52 40 60 11 8 29 36
41 62 11 27 31 57 44 67 13 10 29 38 35 62 7 24 26 56 41 71 16 15 32 43 36
62 3 19 21 53 39 74 20 23 36 57 40 81 5 26 18 52 40 74 19 18 39 52 46 76 7
24 22 57 33 74 21 30 21 30 31 -51 6 -45 18 -93 29 -108z m126 -389 c1 -86 19
-185 43 -235 18 -34 27 -78 35 -162 8 -85 20 -139 44 -205 33 -90 33 -90 30
-315 -1 -160 2 -252 13 -320 17 -113 1 -315 -27 -331 -33 -18 -130 -123 -140
-150 -5 -15 -17 -31 -27 -34 -9 -3 -26 -21 -37 -40 -11 -19 -52 -70 -90 -112
-39 -43 -78 -92 -87 -110 -9 -17 -26 -34 -37 -38 -11 -4 -29 -23 -40 -44 -10
-21 -30 -45 -44 -54 -16 -11 -28 -30 -32 -54 -4 -22 -21 -54 -40 -76 -19 -20
-34 -46 -34 -58 0 -11 -16 -34 -35 -52 -24 -23 -37 -46 -45 -81 -6 -28 -23
-63 -40 -83 -33 -37 -36 -48 -44 -143 -5 -53 -11 -68 -32 -85 -14 -11 -34 -44
-44 -74 -16 -49 -59 -95 -74 -80 -13 12 16 84 48 119 39 44 42 53 50 157 4 47
14 87 31 120 14 27 31 88 39 142 11 67 22 104 40 130 22 31 28 57 38 150 9 94
15 119 39 154 20 31 29 60 34 112 8 89 22 133 51 168 21 25 24 39 25 120 1
158 13 248 43 312 22 48 30 87 41 197 10 108 18 144 34 166 25 35 37 90 46
202 6 67 12 93 32 122 17 26 28 60 34 115 6 49 21 102 40 143 24 51 32 87 40
173 11 114 20 151 46 179 23 26 33 13 33 -45z m-1193 -1298 c6 -314 34 -617
62 -692 6 -15 15 -150 21 -298 11 -299 19 -368 56 -479 24 -70 25 -83 19 -205
-16 -316 -23 -379 -49 -431 -26 -50 -41 -124 -56 -274 -4 -47 -18 -112 -30
-144 -16 -45 -23 -95 -29 -198 -7 -136 -11 -155 -29 -144 -13 8 -42 93 -42
123 0 29 -16 62 -42 83 -11 9 -22 37 -28 74 -7 45 -17 67 -41 92 -18 18 -35
50 -40 75 -6 24 -24 58 -43 79 -24 27 -35 50 -40 87 -4 34 -16 63 -35 87 -21
26 -33 56 -41 107 -9 55 -19 79 -44 106 -31 36 -31 36 -34 348 -4 380 6 545
37 596 22 37 34 92 50 215 6 45 17 83 30 100 22 32 40 99 41 154 0 38 27 100
60 140 12 15 23 48 27 79 4 39 14 63 35 87 22 25 32 49 38 94 7 50 14 65 44
94 24 22 36 42 36 60 0 44 31 90 55 83 6 -2 11 -46 12 -98z m1347 -610 c8 -51
5 -67 -28 -167 -21 -65 -36 -131 -36 -159 0 -88 -18 -165 -44 -192 -31 -32
-46 -72 -46 -117 0 -26 -8 -42 -30 -63 -31 -28 -50 -75 -50 -123 0 -18 -13
-42 -34 -66 -31 -34 -35 -46 -44 -125 -8 -76 -14 -91 -41 -122 -17 -20 -31
-41 -31 -48 0 -33 -24 -91 -50 -120 -15 -18 -33 -51 -39 -75 -7 -24 -22 -49
-35 -57 -15 -10 -28 -36 -39 -73 -11 -41 -24 -64 -45 -79 -16 -12 -32 -34 -36
-48 -4 -15 -22 -42 -40 -60 -19 -19 -37 -48 -41 -64 -4 -18 -20 -40 -37 -52
-17 -12 -36 -36 -43 -53 -7 -17 -25 -42 -40 -56 -14 -13 -31 -44 -37 -68 -7
-29 -21 -51 -44 -68 -18 -14 -37 -39 -43 -56 -6 -16 -24 -43 -39 -59 -16 -17
-34 -47 -40 -68 -7 -22 -22 -43 -36 -51 -14 -7 -30 -25 -36 -41 -15 -36 -48
-65 -59 -53 -13 14 8 201 30 266 32 97 49 180 49 249 0 71 12 119 41 159 19
29 44 117 54 197 4 29 14 58 22 65 8 7 25 35 38 63 12 27 50 83 84 124 34 41
69 88 78 105 9 17 26 43 39 59 12 15 26 47 29 72 4 24 14 50 22 56 24 21 41
62 56 140 10 54 21 82 40 103 18 19 29 45 33 80 6 40 14 57 40 80 18 16 36 41
39 56 3 15 21 42 40 60 19 19 39 48 45 66 6 18 27 44 46 59 18 14 34 32 34 40
0 7 18 28 40 45 22 17 40 38 40 46 0 7 16 28 35 45 19 18 35 38 35 45 0 7 18
34 40 59 22 25 40 54 40 64 0 24 21 42 45 39 16 -2 22 -14 29 -59z m2793 -821
c31 -29 29 -42 -9 -67 -18 -11 -44 -28 -57 -38 -33 -24 -331 -34 -331 -11 1
27 28 48 94 72 37 13 77 34 87 45 30 32 182 31 216 -1z m-7001 -253 c-4 -14
-11 -23 -16 -20 -11 7 -13 48 -3 59 13 13 26 -13 19 -39z m5234 -855 c0 -5 -9
-10 -20 -10 -11 0 -20 5 -20 10 0 6 9 10 20 10 11 0 20 -4 20 -10z m-1808
-2630 c-30 -30 -52 -39 -52 -21 0 12 51 50 68 51 8 0 0 -13 -16 -30z"/>
<path d="M5326 12574 c-22 -8 -47 -21 -57 -30 -18 -16 -184 -78 -254 -94 -22
-6 -106 -14 -187 -19 -137 -8 -151 -10 -189 -35 -23 -15 -63 -34 -91 -42 -27
-9 -57 -24 -66 -36 -9 -11 -42 -31 -72 -45 -30 -14 -65 -34 -77 -45 -19 -17
-40 -22 -138 -27 -115 -6 -115 -6 -150 -43 -22 -25 -43 -38 -60 -38 -36 0 -94
-26 -101 -45 -4 -9 -28 -27 -55 -40 -27 -14 -53 -34 -59 -44 -5 -11 -26 -29
-45 -41 -20 -12 -44 -38 -54 -59 -11 -20 -31 -47 -45 -60 -14 -13 -30 -39 -36
-57 -6 -18 -27 -44 -46 -59 -18 -14 -34 -33 -34 -41 0 -9 -14 -30 -32 -47 -17
-18 -42 -55 -54 -84 -13 -28 -29 -55 -37 -60 -23 -13 -37 -49 -37 -95 0 -57
13 -68 77 -68 46 0 55 3 74 29 11 16 32 34 45 41 12 7 34 36 47 64 14 28 37
62 51 75 14 14 26 31 26 39 0 8 15 29 34 47 18 17 41 45 49 62 17 31 165 183
179 183 5 0 28 18 51 40 27 24 59 43 86 49 23 5 59 20 79 34 35 24 87 38 194
52 29 4 59 16 77 31 16 13 33 24 37 24 32 0 89 26 114 50 16 16 53 36 82 45
29 8 65 27 80 42 28 26 29 27 215 33 195 6 238 16 261 57 7 11 36 21 88 30 48
8 92 23 115 37 20 14 53 31 72 40 42 17 54 38 51 88 -3 48 -8 55 -52 68 -50
14 -109 12 -156 -6z"/>
<path d="M90 12561 c-21 -6 -25 -13 -25 -41 0 -33 2 -35 38 -38 38 -3 38 -3
35 39 -3 46 -9 51 -48 40z"/>
<path d="M2747 10602 c-11 -12 -17 -36 -17 -71 0 -52 1 -54 62 -112 69 -66
101 -79 198 -79 68 0 83 5 93 30 3 9 6 5 6 -11 1 -27 16 -45 54 -64 11 -5 25
-26 31 -46 6 -20 25 -48 42 -63 28 -23 34 -36 49 -123 10 -53 23 -110 30 -127
9 -20 10 -39 3 -60 -5 -17 -6 -62 -2 -100 6 -62 10 -74 43 -109 48 -51 124
-64 161 -27 32 32 25 150 -13 234 -23 50 -27 72 -28 155 -1 198 -7 223 -75
291 -32 33 -68 60 -79 60 -11 0 -33 9 -50 20 -39 26 -130 28 -157 3 -17 -15
-18 -14 -18 26 0 44 -23 101 -41 101 -5 0 -32 20 -58 45 -48 45 -48 45 -133
45 -70 0 -88 -3 -101 -18z"/>
<path d="M5685 10308 c-152 -17 -165 -25 -317 -189 -21 -22 -38 -43 -38 -48 0
-5 -14 -25 -30 -46 -17 -21 -38 -63 -46 -94 -9 -31 -21 -62 -28 -70 -6 -8 -13
-44 -16 -80 -5 -65 -6 -66 -35 -69 -44 -4 -73 -21 -79 -47 -5 -18 -15 -24 -51
-30 -28 -4 -58 -17 -78 -34 -18 -15 -50 -31 -71 -34 -22 -4 -62 -18 -90 -32
-79 -39 -212 -76 -311 -86 -132 -13 -132 -13 -165 15 -42 35 -89 46 -202 46
-133 0 -193 -14 -236 -56 -19 -19 -52 -39 -74 -44 -23 -7 -45 -21 -56 -38 -9
-15 -34 -45 -55 -67 -21 -22 -54 -56 -72 -75 -18 -19 -38 -51 -44 -71 -7 -20
-22 -42 -36 -49 -15 -8 -31 -32 -41 -59 -10 -25 -30 -59 -45 -76 -15 -16 -31
-47 -35 -68 -4 -24 -19 -52 -39 -71 -21 -21 -34 -46 -39 -74 -4 -30 -16 -51
-40 -73 -21 -19 -38 -46 -45 -73 -6 -25 -27 -60 -51 -87 -22 -24 -47 -51 -54
-59 -8 -8 -41 -42 -74 -75 -116 -115 -203 -218 -230 -271 -12 -23 -28 -44 -37
-48 -9 -3 -22 -21 -30 -40 -8 -19 -28 -44 -44 -55 -16 -12 -33 -32 -36 -44 -4
-12 -21 -44 -39 -72 -25 -41 -31 -60 -32 -110 -1 -53 -4 -61 -24 -72 -14 -7
-61 -48 -106 -92 -45 -45 -85 -81 -88 -81 -14 0 -4 23 23 58 16 20 33 54 37
75 3 21 22 56 40 78 19 23 34 42 34 43 0 30 28 132 45 166 26 52 30 72 50 268
8 78 21 162 29 185 24 74 30 239 11 302 -17 53 -17 54 4 81 11 15 21 33 21 41
0 27 159 163 191 163 5 0 21 -26 35 -57 46 -107 45 -106 89 -107 55 -1 67 27
78 179 4 66 10 151 13 188 8 97 -6 117 -86 117 -54 0 -64 -3 -97 -34 -55 -48
-80 -59 -155 -67 -79 -7 -137 -49 -174 -126 -12 -25 -31 -53 -43 -64 -11 -10
-25 -37 -31 -58 -6 -23 -22 -49 -38 -61 -89 -68 -125 -89 -174 -104 -29 -8
-65 -27 -78 -41 -13 -14 -41 -31 -62 -37 -21 -6 -50 -22 -64 -35 -14 -13 -42
-32 -63 -43 -21 -10 -54 -34 -74 -52 -62 -57 -111 -95 -145 -112 -18 -9 -36
-24 -39 -32 -3 -8 -24 -24 -47 -36 -22 -11 -54 -33 -71 -49 -101 -98 -125
-119 -134 -119 -6 0 -18 -15 -27 -32 -9 -18 -29 -48 -45 -65 -15 -18 -33 -51
-39 -73 -6 -22 -24 -55 -40 -74 -21 -23 -32 -49 -37 -82 -4 -32 -15 -57 -34
-77 -32 -33 -34 -37 -48 -121 -7 -35 -20 -69 -32 -82 -28 -30 -38 -81 -39
-189 0 -59 -5 -99 -15 -115 -41 -74 -45 -93 -55 -294 -9 -212 -27 -316 -60
-351 -22 -23 -36 -59 -51 -124 -5 -25 -23 -66 -40 -90 -16 -24 -29 -56 -29
-69 0 -43 -23 -103 -45 -121 -12 -9 -30 -32 -40 -51 -10 -19 -33 -52 -51 -73
-19 -20 -34 -41 -34 -47 0 -8 -38 -56 -120 -150 -16 -19 -68 -74 -115 -122
-47 -48 -85 -91 -85 -96 0 -5 -14 -15 -31 -22 -18 -8 -37 -27 -47 -47 -9 -18
-19 -33 -23 -33 -12 0 -124 -113 -131 -132 -4 -9 -19 -22 -34 -30 -16 -7 -39
-29 -52 -48 -13 -19 -32 -38 -43 -42 -10 -4 -19 -14 -19 -21 0 -16 -61 -67
-79 -67 -7 0 -11 -50 -11 -149 0 -207 6 -208 186 -22 57 58 120 124 140 146
57 65 70 78 126 122 29 24 77 63 107 88 30 25 61 45 69 45 8 0 28 15 46 33 22
24 49 38 95 51 35 9 77 28 93 41 15 13 51 30 80 39 29 8 70 27 91 41 22 16 63
30 99 36 33 5 93 23 132 39 39 16 109 36 155 44 46 9 106 27 133 41 36 19 80
30 169 41 79 9 142 23 182 40 51 22 87 28 207 36 117 7 157 14 205 34 37 15
97 29 155 35 76 8 109 17 163 44 53 28 80 35 125 35 97 1 200 18 230 39 15 11
53 27 85 36 32 9 78 31 103 50 25 19 54 35 64 35 11 0 29 13 41 29 12 16 40
37 63 47 68 31 133 86 309 261 146 147 163 166 183 204 9 19 32 51 50 72 19
20 34 44 34 52 0 8 15 32 34 52 18 21 39 49 46 63 7 14 22 31 32 38 10 7 29
35 43 62 14 27 30 52 36 55 6 4 24 35 40 69 16 33 39 75 52 92 12 18 30 46 39
62 24 44 86 60 213 56 55 -2 114 -4 131 -4 20 0 42 -11 68 -35 21 -19 55 -39
75 -45 74 -21 139 -110 81 -110 -12 0 -33 -6 -48 -14 -15 -7 -69 -16 -121 -18
-83 -4 -96 -7 -112 -27 -21 -26 -26 -109 -9 -142 45 -82 286 -60 350 33 30 44
97 82 162 92 34 5 54 15 70 34 13 16 43 39 68 52 67 38 90 79 90 161 0 68 0
68 -56 105 -30 20 -68 52 -82 71 -15 19 -61 70 -102 113 -158 165 -153 158
-146 206 3 24 17 61 31 83 15 21 32 62 40 91 8 29 25 65 39 79 14 14 32 46 41
70 8 24 28 58 45 77 16 19 34 52 40 74 6 22 24 54 40 72 21 23 32 47 36 81 4
26 18 65 32 85 14 20 33 63 43 96 10 32 29 75 42 95 52 78 60 277 13 330 -114
127 -88 116 -265 119 -89 2 -161 6 -161 8 0 11 57 56 86 69 18 8 41 30 52 49
14 24 30 36 54 41 39 8 68 31 68 54 0 10 17 21 48 31 40 13 48 20 52 44 5 29
5 30 70 28 36 -2 71 2 79 7 21 14 25 93 5 108 -23 17 7 104 52 153 17 19 37
45 43 57 6 13 31 32 54 44 23 12 55 33 70 47 23 22 39 27 95 30 68 4 68 4 120
-49 28 -30 52 -63 52 -75 0 -39 28 -114 54 -145 20 -24 26 -41 26 -79 0 -94
21 -200 46 -229 47 -56 55 -119 32 -253 -11 -64 -16 -73 -44 -90 -18 -10 -37
-32 -44 -48 -8 -20 -24 -33 -47 -41 -20 -6 -52 -26 -72 -43 -122 -106 -169
-125 -217 -87 -29 23 -68 27 -108 11 -24 -9 -26 -14 -26 -67 0 -78 25 -120 77
-128 21 -4 58 -13 82 -21 94 -30 182 -12 256 52 66 57 315 305 315 314 0 4 14
24 30 45 43 54 43 120 -1 170 -26 29 -35 54 -51 132 -11 55 -28 109 -40 126
-16 22 -23 53 -29 116 -8 100 -16 147 -35 217 -8 28 -21 92 -28 141 -12 82
-17 95 -60 151 -50 65 -50 65 -140 81 -66 12 -68 12 -181 -1z m-1555 -1015
c14 -7 40 -23 59 -35 47 -30 175 -36 268 -14 105 25 213 5 229 -43 16 -49 26
-52 194 -49 177 3 191 0 212 -46 20 -42 -2 -146 -45 -211 -19 -29 -29 -62 -36
-123 -11 -86 -19 -110 -46 -132 -8 -7 -22 -38 -31 -69 -9 -31 -27 -67 -39 -81
-13 -14 -32 -45 -43 -70 -11 -25 -29 -53 -40 -64 -12 -10 -28 -42 -36 -70 -9
-28 -27 -64 -41 -80 -14 -16 -30 -48 -35 -70 -6 -23 -20 -68 -32 -101 -11 -33
-23 -86 -25 -118 -5 -64 -6 -62 171 -247 23 -25 48 -56 55 -68 6 -12 17 -22
25 -22 14 0 86 -61 86 -73 0 -17 -31 -5 -52 22 -31 38 -53 48 -126 57 -35 4
-73 14 -85 24 -36 28 -93 39 -228 44 -170 6 -253 21 -315 57 -50 28 -55 29
-180 28 -71 0 -147 -3 -169 -7 -40 -7 -40 -7 -43 -58 -3 -57 -11 -51 108 -88
82 -26 145 -59 148 -78 2 -9 -9 -28 -23 -42 -14 -14 -28 -39 -31 -56 -4 -17
-19 -41 -34 -54 -15 -12 -36 -38 -45 -57 -10 -19 -30 -47 -45 -64 -15 -16 -31
-41 -35 -55 -4 -14 -23 -41 -42 -60 -34 -35 -85 -96 -173 -206 -86 -108 -186
-198 -284 -258 -17 -10 -45 -33 -61 -51 -17 -17 -40 -35 -52 -39 -12 -4 -30
-22 -41 -40 -14 -24 -29 -35 -55 -40 -20 -4 -54 -22 -76 -40 -25 -21 -57 -37
-83 -41 -50 -8 -74 -20 -105 -48 -18 -15 -54 -24 -175 -39 -100 -12 -166 -26
-190 -38 -21 -11 -82 -27 -135 -36 -57 -9 -123 -28 -158 -44 -51 -24 -84 -31
-222 -44 -134 -12 -170 -19 -212 -40 -40 -21 -75 -28 -173 -36 -143 -12 -147
-13 -215 -47 -38 -18 -78 -27 -143 -32 -71 -6 -95 -12 -113 -29 -24 -22 -106
-54 -119 -46 -14 9 249 294 271 294 5 0 27 15 48 33 22 18 58 41 81 51 23 11
42 22 42 27 0 4 25 23 55 43 30 20 58 42 62 49 4 7 22 22 40 33 17 10 53 34
79 53 30 22 66 37 97 42 27 5 67 17 88 29 22 11 48 20 59 20 10 0 21 4 24 8 6
10 182 29 326 36 69 4 120 13 187 36 51 16 106 30 122 30 60 0 134 22 160 48
15 15 44 29 71 34 25 4 63 21 86 37 23 16 57 34 77 40 20 7 47 25 59 41 13 15
37 35 55 44 18 9 37 25 43 36 6 11 29 29 51 40 22 12 50 32 62 46 12 14 39 35
59 45 23 12 40 29 44 44 3 13 16 27 27 30 55 16 79 30 88 52 7 19 16 23 49 23
22 0 57 7 79 16 38 15 39 17 39 64 0 49 0 49 -55 56 -81 10 -117 -3 -123 -46
-5 -35 -5 -35 -72 -41 -38 -3 -69 -7 -70 -10 -2 -2 -8 -13 -14 -24 -7 -13 -31
-25 -65 -33 -30 -8 -67 -24 -84 -36 -16 -12 -44 -28 -62 -35 -17 -7 -34 -19
-37 -26 -3 -8 -24 -26 -48 -41 -24 -15 -49 -36 -56 -46 -8 -11 -37 -29 -66
-42 -28 -13 -59 -35 -69 -49 -11 -17 -30 -28 -54 -33 -44 -8 -68 -19 -104 -48
-20 -17 -50 -24 -139 -34 -68 -8 -133 -21 -160 -33 -74 -33 -310 -63 -310 -39
0 5 12 17 28 27 15 10 47 37 71 61 25 24 57 50 72 57 15 8 36 26 48 40 11 15
42 37 70 50 28 14 55 33 60 43 6 11 35 31 65 45 39 19 57 34 62 51 4 19 14 25
50 31 52 7 74 33 74 86 0 33 -3 38 -30 44 -30 7 -30 7 7 41 19 19 40 34 45 34
5 0 30 20 56 44 26 24 61 46 77 50 17 4 48 19 69 33 22 14 71 32 110 40 46 9
86 25 114 45 34 23 60 32 120 40 54 6 93 18 130 39 34 19 84 35 139 45 62 10
97 22 127 44 25 17 61 31 91 36 58 8 78 17 123 55 18 16 38 29 44 29 6 0 28
17 49 38 69 67 100 92 140 113 22 11 43 27 46 35 3 8 24 25 47 39 22 13 61 44
84 70 24 25 47 45 51 45 4 0 13 11 20 24 7 13 28 31 47 40 19 8 40 27 46 42 7
14 30 35 52 46 41 21 91 60 156 124 20 19 41 34 48 34 6 0 23 18 37 40 13 21
34 44 45 50 27 14 30 114 3 124 -55 22 -121 -10 -226 -108 -40 -37 -91 -84
-114 -104 -23 -20 -55 -49 -70 -63 -15 -15 -38 -30 -51 -34 -13 -4 -38 -19
-55 -35 -18 -15 -50 -33 -73 -39 -22 -6 -53 -24 -69 -41 -16 -16 -34 -30 -40
-30 -7 0 -31 -19 -53 -42 -23 -24 -51 -52 -62 -63 -11 -11 -32 -32 -48 -48
-60 -60 -78 -75 -112 -92 -19 -10 -53 -31 -75 -47 -27 -19 -62 -32 -105 -39
-36 -5 -83 -21 -106 -34 -27 -16 -69 -28 -124 -34 -57 -8 -97 -19 -128 -37
-32 -19 -71 -30 -144 -39 -77 -10 -108 -19 -137 -39 -44 -31 -87 -36 -76 -8 4
9 11 32 17 50 5 18 20 40 34 49 14 9 32 30 41 47 17 33 27 44 166 184 51 51
104 100 120 108 15 8 27 19 27 24 0 6 15 27 34 47 18 21 45 62 60 91 14 28 31
52 36 52 16 0 40 57 40 95 0 25 7 43 25 59 27 25 45 65 45 102 0 15 14 38 35
59 20 20 39 53 45 77 7 24 24 57 40 73 15 17 33 47 40 68 7 23 21 43 35 49 14
6 32 31 43 58 20 49 155 170 189 170 7 0 30 16 49 36 39 39 85 41 144 7z
m-1634 -688 c4 -9 1 -35 -5 -59 -6 -24 -18 -109 -26 -190 -9 -86 -25 -178 -40
-224 -13 -42 -29 -115 -35 -162 -9 -64 -19 -96 -40 -128 -16 -25 -31 -64 -35
-94 -5 -34 -15 -59 -31 -75 -29 -29 -49 -67 -58 -109 -4 -18 -16 -40 -28 -50
-11 -11 -32 -37 -46 -59 -46 -72 -85 -117 -244 -275 -87 -86 -158 -162 -158
-169 0 -6 -15 -28 -34 -49 -19 -20 -53 -57 -75 -82 -95 -104 -372 -380 -381
-380 -5 0 -1 15 10 33 10 17 23 58 29 90 6 31 22 76 35 100 14 23 28 67 31 97
4 30 16 74 27 97 13 29 18 58 16 95 -3 53 -3 53 -43 58 -36 4 -40 8 -37 30 1
14 6 72 11 130 14 156 34 244 64 280 16 19 32 57 42 104 13 59 24 82 51 110
19 19 34 42 34 51 0 20 27 74 50 100 10 11 23 36 29 56 7 20 21 45 32 55 12
11 33 39 47 64 42 72 145 167 247 227 16 10 51 38 77 63 90 84 103 95 147 118
25 13 56 34 69 47 13 14 39 27 58 31 18 3 54 19 79 35 38 24 88 45 118 48 4 1
10 -6 13 -14z"/>
<path d="M3210 7476 c-41 -6 -84 -17 -95 -23 -11 -6 -42 -14 -70 -18 -75 -11
-95 -27 -95 -78 0 -24 5 -48 12 -55 25 -25 264 -4 275 25 9 23 60 43 111 43
57 0 72 12 72 60 0 20 -5 41 -12 48 -15 15 -97 14 -198 -2z"/>
<path d="M1635 10199 c-219 -12 -271 -28 -259 -82 15 -70 4 -67 224 -67 236 0
340 -12 393 -46 21 -14 64 -30 95 -35 36 -7 66 -20 83 -35 28 -26 106 -42 153
-30 23 6 26 11 26 51 0 42 -3 47 -42 71 -22 14 -52 39 -65 55 -14 16 -42 33
-65 40 -23 6 -58 24 -78 40 -60 48 -147 55 -465 38z"/>
<path d="M2463 9870 c-17 -7 -23 -18 -23 -39 0 -16 -3 -36 -6 -44 -3 -9 17
-41 50 -80 54 -63 56 -68 56 -124 0 -124 31 -175 102 -166 50 7 53 10 74 83 9
30 27 76 40 102 18 35 24 64 24 109 0 76 -13 94 -86 115 -28 8 -60 24 -69 34
-20 22 -118 28 -162 10z"/>
<path d="M5446 9448 c-7 -18 -16 -41 -19 -50 -3 -9 -16 -18 -29 -20 -32 -4
-49 -44 -46 -108 3 -55 3 -55 55 -58 52 -3 52 -3 67 49 9 29 16 63 16 75 0 16
7 24 23 26 19 3 22 10 25 61 3 57 3 57 -38 57 -37 0 -42 -3 -54 -32z"/>
<path d="M3050 8765 c0 -8 5 -15 10 -15 6 0 10 7 10 15 0 8 -4 15 -10 15 -5 0
-10 -7 -10 -15z"/>
<path d="M4070 4493 c-8 -3 -34 -23 -57 -44 -42 -39 -53 -43 -131 -54 -24 -3
-69 -16 -100 -29 -46 -19 -83 -25 -192 -30 -74 -3 -155 -11 -180 -17 -25 -6
-117 -13 -205 -14 -225 -4 -465 -21 -500 -34 -16 -7 -85 -19 -154 -27 -69 -8
-157 -25 -197 -38 -53 -18 -104 -26 -207 -31 -171 -10 -181 -7 -207 52 -32 72
-45 83 -104 83 -78 -1 -132 -30 -155 -84 -22 -49 -31 -54 -112 -55 -68 -2
-116 -15 -143 -40 -12 -10 -45 -26 -74 -36 -29 -9 -67 -30 -83 -46 -16 -15
-44 -31 -64 -35 -19 -3 -52 -22 -72 -41 -21 -18 -49 -36 -63 -39 -48 -11 -81
-27 -91 -45 -5 -10 -28 -23 -52 -30 -23 -6 -59 -26 -79 -45 -21 -19 -45 -34
-54 -34 -19 0 -98 -75 -338 -321 -15 -15 -32 -42 -40 -60 -8 -19 -26 -45 -41
-59 -15 -14 -34 -42 -42 -62 -8 -20 -26 -44 -39 -53 -14 -9 -33 -35 -43 -58
-10 -23 -28 -51 -40 -61 -12 -11 -26 -39 -32 -62 -8 -30 -22 -51 -44 -68 -24
-19 -35 -37 -40 -66 -6 -36 -46 -90 -66 -90 -18 0 -29 -165 -29 -419 0 -271 1
-281 19 -281 25 0 81 34 136 82 23 21 58 44 78 53 20 8 38 19 42 25 13 21 99
63 165 81 38 10 79 24 92 33 13 8 60 22 106 30 46 9 95 25 110 36 46 34 121
41 547 47 400 5 411 5 468 -16 31 -12 82 -30 113 -42 43 -15 98 -22 233 -30
147 -7 187 -13 241 -33 36 -14 82 -28 103 -31 20 -3 37 -10 37 -16 0 -25 -34
-59 -66 -65 -19 -3 -53 -21 -75 -40 -41 -34 -50 -38 -112 -49 -20 -3 -52 -19
-70 -34 -22 -20 -48 -31 -86 -36 -40 -5 -62 -15 -90 -40 -28 -26 -49 -35 -93
-40 -52 -7 -68 -13 -129 -57 -13 -9 -59 -21 -101 -27 -51 -7 -97 -21 -136 -41
-59 -31 -59 -31 -393 -36 -184 -2 -341 -6 -349 -9 -38 -12 -386 23 -438 44
-54 22 -90 27 -254 36 l-98 5 0 -105 c0 -114 -3 -109 65 -106 22 1 85 -5 140
-13 55 -9 170 -20 255 -25 123 -8 173 -15 240 -37 103 -32 258 -31 321 2 29
16 69 19 279 25 262 7 324 16 382 54 20 13 64 29 97 34 62 10 89 21 129 52 12
9 53 22 90 29 46 7 78 19 97 36 16 13 40 27 54 30 84 19 111 29 153 55 26 17
64 35 85 41 21 5 53 21 71 35 18 13 54 32 80 40 26 9 61 26 77 38 17 13 45 30
62 39 18 9 39 29 47 45 8 15 28 34 45 41 16 6 37 20 46 31 10 10 39 25 66 34
30 10 56 27 67 42 9 15 31 40 48 57 17 17 41 49 52 71 11 22 29 49 41 59 12
11 27 39 33 63 6 24 23 59 38 78 15 19 31 52 35 72 4 21 21 54 40 74 18 20 38
53 45 73 6 20 21 41 31 47 11 6 29 31 40 56 11 25 32 61 48 79 16 18 34 48 41
68 6 20 20 41 31 46 10 6 26 25 35 43 16 30 29 47 114 150 20 23 42 56 49 72
7 17 26 44 43 60 36 37 100 121 121 161 32 60 257 273 327 309 39 20 83 53
137 103 20 18 49 40 65 48 38 20 48 49 48 142 0 76 -16 122 -41 122 -6 0 -36
17 -67 38 -52 34 -63 37 -137 39 -44 1 -87 0 -95 -4z m60 -242 c0 -12 -64 -67
-99 -86 -16 -8 -32 -23 -35 -33 -4 -10 -24 -28 -46 -41 -21 -12 -42 -31 -45
-41 -4 -11 -19 -27 -35 -35 -16 -8 -37 -28 -46 -44 -10 -16 -28 -35 -41 -42
-12 -7 -25 -20 -28 -29 -3 -9 -24 -37 -48 -62 -77 -84 -115 -137 -122 -168 -4
-17 -18 -38 -31 -47 -14 -9 -33 -32 -44 -52 -10 -20 -28 -45 -40 -56 -12 -11
-27 -33 -34 -50 -7 -16 -45 -62 -83 -100 -41 -41 -79 -90 -91 -118 -11 -26
-26 -47 -31 -47 -14 0 -41 -53 -41 -80 0 -11 -17 -38 -39 -59 -21 -21 -42 -52
-45 -68 -4 -17 -20 -43 -36 -58 -16 -15 -32 -40 -35 -55 -3 -15 -21 -43 -40
-63 -21 -22 -39 -55 -46 -82 -6 -25 -22 -53 -34 -63 -12 -10 -29 -32 -38 -48
-20 -39 -80 -92 -112 -100 -30 -8 -210 13 -280 31 -27 8 -120 21 -205 31 -100
10 -179 25 -224 40 -67 23 -79 24 -365 24 -163 0 -323 4 -356 10 -33 5 -147
12 -254 15 -107 3 -197 7 -199 10 -7 6 72 43 108 50 19 3 73 7 120 8 73 2 91
6 125 28 27 18 70 32 133 43 63 11 106 25 132 42 26 18 61 29 111 35 40 5 82
16 93 24 12 8 30 22 41 30 12 8 45 19 75 25 31 6 73 23 95 39 22 16 65 34 95
40 31 7 66 22 80 36 14 13 44 28 68 35 24 6 60 26 80 44 20 19 55 41 77 50 22
9 49 25 60 36 11 10 41 28 66 38 26 11 50 25 54 31 3 6 32 25 63 41 31 15 70
42 85 59 15 16 36 32 46 36 10 3 24 17 32 31 7 14 25 32 40 40 15 7 36 24 46
38 11 13 41 35 69 49 27 14 60 37 73 52 13 14 30 25 37 25 8 0 32 18 54 40 22
22 45 40 53 40 7 0 24 12 38 26 13 15 41 37 62 50 20 14 84 71 141 129 87 86
113 106 154 118 27 8 68 25 91 36 39 20 200 51 267 51 18 0 50 13 75 30 29 19
58 30 84 31 22 1 54 5 70 9 43 11 55 11 55 1z m-961 -145 c10 -12 8 -17 -11
-27 -13 -7 -35 -24 -50 -38 -15 -14 -48 -44 -73 -66 -25 -22 -62 -56 -83 -76
-20 -20 -50 -39 -67 -43 -16 -4 -43 -20 -60 -36 -16 -16 -47 -36 -67 -44 -20
-9 -39 -25 -43 -36 -4 -11 -24 -29 -46 -40 -21 -11 -45 -29 -51 -40 -7 -11
-34 -27 -61 -36 -28 -9 -55 -26 -64 -41 -9 -13 -32 -32 -52 -43 -20 -10 -47
-29 -59 -43 -13 -14 -39 -28 -58 -32 -20 -3 -51 -21 -71 -40 -19 -18 -50 -36
-68 -39 -17 -4 -42 -18 -55 -31 -13 -14 -48 -33 -79 -42 -39 -13 -59 -26 -70
-46 -16 -28 -22 -30 -95 -42 -25 -4 -49 -17 -67 -36 -20 -22 -42 -32 -86 -40
-82 -14 -89 -17 -123 -46 -24 -20 -48 -27 -111 -34 -85 -10 -110 -19 -146 -52
-12 -11 -29 -17 -38 -14 -11 5 0 22 49 72 50 52 69 80 85 126 11 33 33 75 49
94 16 18 33 50 36 71 4 22 20 52 36 69 16 17 36 50 45 74 8 25 26 59 39 76 13
17 30 51 37 76 7 24 23 57 36 72 23 29 43 86 43 126 0 13 16 41 35 62 29 32
35 47 35 84 0 48 10 55 44 30 16 -12 58 -15 210 -15 223 0 301 10 378 45 54
25 69 26 319 36 145 5 265 12 268 14 11 12 99 4 110 -9z m-1562 -142 c12 -32
-16 -125 -46 -153 -16 -15 -34 -45 -40 -66 -6 -21 -24 -51 -40 -66 -20 -18
-33 -41 -37 -68 -4 -28 -17 -49 -40 -70 -20 -19 -38 -47 -44 -73 -7 -24 -24
-56 -40 -73 -15 -16 -33 -46 -39 -66 -6 -20 -23 -47 -37 -60 -14 -13 -35 -41
-45 -62 -11 -21 -33 -46 -50 -56 -17 -10 -37 -28 -45 -40 -9 -12 -34 -31 -57
-42 -23 -12 -53 -31 -67 -44 -14 -12 -41 -28 -61 -34 -20 -7 -45 -21 -55 -33
-11 -11 -47 -33 -81 -49 -35 -15 -63 -32 -63 -37 0 -6 -21 -20 -47 -32 -27
-12 -61 -34 -78 -50 -16 -15 -47 -33 -68 -40 -21 -6 -45 -22 -53 -35 -9 -14
-37 -31 -64 -40 -26 -9 -64 -31 -83 -50 -20 -19 -42 -35 -50 -35 -8 0 -31 -13
-52 -30 -56 -44 -74 -41 -68 13 7 65 32 135 59 167 14 16 31 52 40 79 9 32 24
57 39 67 13 9 29 32 36 52 6 20 27 54 45 75 19 20 34 46 34 58 0 11 16 37 36
57 20 20 42 52 50 71 8 19 23 40 33 48 10 7 31 33 45 58 15 25 31 45 36 45 5
0 24 15 42 33 37 38 118 108 208 182 33 28 80 66 103 86 23 20 52 40 65 44 13
3 36 20 52 35 17 16 48 34 71 40 23 6 53 24 68 40 18 20 43 33 78 40 33 7 59
20 71 34 22 29 54 46 84 46 13 0 44 11 68 24 54 28 79 31 87 10z"/>
<path d="M3133 2320 c-34 -14 -43 -42 -43 -130 0 -126 28 -170 110 -170 91 0
130 45 130 151 0 63 -2 69 -38 109 -40 45 -107 63 -159 40z"/>
</g>
</svg>
